<svg width="487" height="487" viewBox="0 0 487 487" fill="none" xmlns="http://www.w3.org/2000/svg">
<g clip-path="url(#clip0)">
<path d="M446 70H344.8V53.5C344.8 24 320.8 0 291.3 0H195.1C165.6 0 141.6 24 141.6 53.5V70H40.4C32.9 70 26.9 76 26.9 83.5C26.9 91 32.9 97 40.4 97H64.8V414.2C64.8 454 97.2 486.4 137 486.4H349.4C389.2 486.4 421.6 454 421.6 414.2V97H446C453.5 97 459.5 91 459.5 83.5C459.5 76 453.5 70 446 70ZM168.6 53.5C168.6 38.9 180.5 27 195.1 27H291.3C305.9 27 317.8 38.9 317.8 53.5V70H168.6V53.5ZM394.6 414.2C394.6 439.1 374.3 459.4 349.4 459.4H137C112.1 459.4 91.8 439.1 91.8 414.2V97H394.7V414.2H394.6Z" fill="#C673A1"/>
<path d="M243.2 411C250.7 411 256.7 405 256.7 397.5V158.9C256.7 151.4 250.7 145.4 243.2 145.4C235.7 145.4 229.7 151.4 229.7 158.9V397.4C229.7 404.9 235.7 411 243.2 411Z" fill="#C673A1"/>
<path d="M155.1 396.1C162.6 396.1 168.6 390.1 168.6 382.6V173.7C168.6 166.2 162.6 160.2 155.1 160.2C147.6 160.2 141.6 166.2 141.6 173.7V382.6C141.6 390.1 147.7 396.1 155.1 396.1Z" fill="#C673A1"/>
<path d="M331.3 396.1C338.8 396.1 344.8 390.1 344.8 382.6V173.7C344.8 166.2 338.8 160.2 331.3 160.2C323.8 160.2 317.8 166.2 317.8 173.7V382.6C317.8 390.1 323.8 396.1 331.3 396.1Z" fill="#C673A1"/>
</g>
<defs>
<clipPath id="clip0">
<rect width="486.4" height="486.4" fill="white"/>
</clipPath>
</defs>
</svg>
