<svg width="125" height="125" viewBox="0 0 125 125" fill="none" xmlns="http://www.w3.org/2000/svg">
<path d="M62.6405 125C50.2672 125.028 38.1641 121.382 27.8645 114.525C17.5649 107.668 9.53237 97.9087 4.78447 86.4826C0.0365734 75.0565 -1.21298 62.4782 1.19411 50.3413C3.6012 38.2044 9.55661 27.0551 18.3058 18.3058C27.0551 9.55661 38.2044 3.6012 50.3413 1.19411C62.4782 -1.21298 75.0565 0.0365734 86.4826 4.78447C97.9087 9.53237 107.668 17.5649 114.525 27.8645C121.382 38.1641 125.028 50.2672 125 62.6405C124.963 79.1678 118.381 95.0076 106.694 106.694C95.0076 118.381 79.1678 124.963 62.6405 125ZM62.6405 4.12487C51.0789 4.10942 39.7724 7.52293 30.1509 13.9337C20.5294 20.3444 13.0252 29.4645 8.5872 40.1404C4.14921 50.8162 2.97685 62.5685 5.21838 73.9107C7.45992 85.2529 13.0147 95.6757 21.1801 103.861C29.3455 112.046 39.7549 117.626 51.0917 119.894C62.4285 122.163 74.1835 121.019 84.87 116.607C95.5566 112.195 104.695 104.712 111.129 95.1063C117.562 85.5003 121.003 74.2021 121.015 62.6405C121.016 47.1455 114.87 32.2831 103.926 21.3133C92.983 10.3436 78.1354 4.16211 62.6405 4.12487Z" fill="white"/>
<path d="M63.2811 103.265C61.4842 103.247 59.6957 103.016 57.953 102.578C55.8868 102.076 53.9612 101.113 52.3211 99.7595C50.6811 98.4063 49.3692 96.6988 48.4842 94.7655L24.7967 42.4686C24.3873 41.5407 24.1759 40.5375 24.1759 39.5233C24.1759 38.509 24.3873 37.5059 24.7967 36.578C25.2091 35.6304 25.8136 34.7786 26.572 34.0767C27.3305 33.3747 28.2264 32.8378 29.203 32.4999C34.047 30.9503 39.2298 30.7986 44.1561 32.0624C46.0167 32.6103 47.7341 33.5606 49.1867 34.8458C50.6394 36.1311 51.7918 37.7199 52.5624 39.4999C56.3905 48.578 62.8124 65.1405 67.5311 77.2186L70.8436 85.6717C71.0607 86.2253 71.4366 86.7023 71.9241 87.0428C72.4116 87.3833 72.9888 87.5721 73.5833 87.5854C74.1777 87.5988 74.7628 87.4361 75.2651 87.1179C75.7674 86.7996 76.1643 86.34 76.4061 85.7967L96.6092 41.1874C96.8614 40.7079 97.001 40.1772 97.0172 39.6357C97.0335 39.0942 96.926 38.5561 96.703 38.0624C96.3847 37.5072 95.9456 37.0307 95.4181 36.6683C94.8907 36.3058 94.2885 36.0667 93.6561 35.9686C90.5314 35.2942 87.3187 35.1254 84.1405 35.4686C82.4463 35.6165 80.8242 36.2225 79.448 37.2216C78.0718 38.2207 76.9933 39.5754 76.328 41.1405L68.5155 60.9374L64.7811 59.5155L72.5936 39.7186C73.5095 37.4735 75.0266 35.5243 76.9783 34.0854C78.9299 32.6464 81.2405 31.7735 83.6561 31.5624C87.2515 31.1688 90.8869 31.3588 94.4217 32.1249C95.6342 32.3486 96.7813 32.8408 97.779 33.5654C98.7766 34.29 99.5995 35.2285 100.187 36.3124C100.688 37.3337 100.948 38.4561 100.948 39.5936C100.948 40.7311 100.688 41.8535 100.187 42.8749L80.0311 87.4373C79.4662 88.6916 78.5443 89.7516 77.3805 90.485C76.2167 91.2183 74.8626 91.5926 73.4874 91.5609C72.1122 91.5292 70.7768 91.0931 69.648 90.3069C68.5192 89.5207 67.647 88.4194 67.1405 87.1405C66.203 84.7342 65.078 81.8436 63.828 78.6717C59.1405 66.6092 52.6717 50.078 48.828 41.0467C48.2873 39.8295 47.4934 38.7414 46.4992 37.855C45.5051 36.9686 44.3334 36.3042 43.0624 35.9061C38.9025 34.8496 34.5304 34.9741 30.4374 36.2655C29.9841 36.4177 29.5678 36.6632 29.2153 36.9861C28.8627 37.3091 28.5817 37.7023 28.3905 38.1405C28.2008 38.5631 28.1027 39.021 28.1027 39.4842C28.1027 39.9474 28.2008 40.4054 28.3905 40.828L52.078 93.0623C52.7051 94.4534 53.6399 95.6838 54.8119 96.6609C55.9839 97.638 57.3625 98.3363 58.8436 98.703C61.5652 99.3638 64.4002 99.4065 67.1405 98.828C68.912 98.5077 70.5032 97.5452 71.6092 96.1248C71.8952 95.6814 72.3455 95.3698 72.8613 95.2584C73.1166 95.2033 73.3803 95.199 73.6374 95.2458C73.8944 95.2926 74.1397 95.3895 74.3592 95.5311C74.5788 95.6727 74.7683 95.8561 74.917 96.0709C75.0656 96.2858 75.1705 96.5278 75.2256 96.7831C75.2808 97.0385 75.2851 97.3022 75.2383 97.5592C75.1915 97.8162 75.0946 98.0615 74.953 98.2811C73.2891 100.604 70.7924 102.193 67.9842 102.719C66.4403 103.067 64.8638 103.25 63.2811 103.265Z" fill="white"/>
</svg>
